<?xml version="1.0" encoding="UTF-8" standalone="no"?>
<!DOCTYPE svg PUBLIC "-//W3C//DTD SVG 1.1//EN" "http://www.w3.org/Graphics/SVG/1.1/DTD/svg11.dtd">
<svg width="100%" height="100%" viewBox="0 0 4250 1167" version="1.1" xmlns="http://www.w3.org/2000/svg" xmlns:xlink="http://www.w3.org/1999/xlink" xml:space="preserve" xmlns:serif="http://www.serif.com/" style="fill-rule:evenodd;clip-rule:evenodd;stroke-linejoin:round;stroke-miterlimit:2;">
    <g transform="matrix(4.16667,0,0,4.16667,33.3333,16.6667)">
        <path d="M804.326,93.609C793.501,93.609 783.316,97.89 775.649,105.664C767.947,113.474 763.706,123.867 763.706,134.929C763.706,145.991 767.947,156.384 775.649,164.193C783.316,171.968 793.501,176.249 804.326,176.249C815.15,176.249 825.335,171.968 833.002,164.193C840.704,156.384 844.945,145.991 844.945,134.929C844.945,123.867 840.704,113.474 833.002,105.664C825.335,97.89 815.15,93.609 804.326,93.609ZM804.326,195.347C796.252,195.347 788.415,193.742 781.034,190.576C773.918,187.524 767.532,183.16 762.051,177.603C756.581,172.057 752.286,165.598 749.286,158.405C746.181,150.964 744.607,143.064 744.607,134.929C744.607,126.793 746.181,118.894 749.286,111.452C752.286,104.26 756.581,97.801 762.051,92.254C767.532,86.698 773.918,82.334 781.034,79.282C788.415,76.117 796.252,74.511 804.326,74.511C812.399,74.511 820.236,76.117 827.617,79.282C834.733,82.334 841.119,86.698 846.599,92.254C852.07,97.801 856.365,104.26 859.365,111.452C862.469,118.894 864.044,126.793 864.044,134.929C864.044,143.064 862.469,150.964 859.365,158.405C856.365,165.598 852.07,172.057 846.599,177.603C841.119,183.16 834.733,187.524 827.617,190.576C820.236,193.742 812.399,195.347 804.326,195.347Z" style="fill:rgb(76,76,76);fill-rule:nonzero;"/>
        <path d="M971.106,193.013L971.105,129.148C971.105,119.662 967.394,110.743 960.657,104.032C953.909,97.311 944.933,93.61 935.385,93.61C925.838,93.61 916.862,97.311 910.114,104.032C903.377,110.743 899.666,119.662 899.666,129.147L899.667,193.013L880.568,193.013L880.568,129.148C880.568,121.771 882.02,114.611 884.885,107.865C887.649,101.357 891.603,95.515 896.637,90.501C901.669,85.49 907.53,81.554 914.057,78.804C920.818,75.956 927.994,74.512 935.385,74.512C942.777,74.512 949.953,75.956 956.714,78.804C963.241,81.554 969.102,85.49 974.133,90.501C979.169,95.515 983.122,101.357 985.886,107.865C988.751,114.611 990.203,121.771 990.203,129.147L990.204,193.013L971.106,193.013Z" style="fill:rgb(76,76,76);fill-rule:nonzero;"/>
        <rect x="433.868" y="76.847" width="19.097" height="116.167" style="fill:rgb(76,76,76);fill-rule:nonzero;"/>
        <path d="M454.851,40.501C454.851,46.816 449.732,51.935 443.417,51.935C437.102,51.935 431.983,46.816 431.983,40.501C431.983,34.186 437.102,29.067 443.417,29.067C449.732,29.067 454.851,34.186 454.851,40.501Z" style="fill:rgb(76,76,76);fill-rule:nonzero;"/>
        <path d="M359.459,193.014L340.361,193.014L340.361,130.146C340.361,122.954 341.772,115.973 344.554,109.395C347.239,103.047 351.081,97.348 355.973,92.456C360.865,87.565 366.564,83.723 372.912,81.038C379.489,78.256 386.471,76.845 393.662,76.845L415.3,76.845L415.3,95.943L393.662,95.943C374.803,95.943 359.459,111.286 359.459,130.146L359.459,193.014Z" style="fill:rgb(76,76,76);fill-rule:nonzero;"/>
        <path d="M588.265,113.03C585.281,105.973 581.009,99.638 575.571,94.2C570.132,88.761 563.797,84.49 556.741,81.505C549.43,78.413 541.67,76.845 533.674,76.845L496.34,76.845C494.786,76.845 493.522,75.581 493.522,74.036L493.556,37.727L474.458,37.709L474.424,74.027C474.424,86.112 484.255,95.943 496.34,95.943L533.674,95.943C544.4,95.943 554.483,100.12 562.067,107.703C569.651,115.287 573.828,125.37 573.828,136.096C573.828,146.821 569.651,156.904 562.067,164.488C554.483,172.071 544.4,176.248 533.674,176.248C522.95,176.248 512.866,172.071 505.283,164.488C497.883,157.089 493.728,147.309 493.529,136.877L493.529,106.813C482.982,106.813 474.431,115.364 474.431,125.911L474.431,126.547L474.424,126.547L474.424,136.096C474.424,144.09 475.992,151.85 479.084,159.161C482.069,166.219 486.34,172.554 491.778,177.992C497.216,183.431 503.552,187.701 510.609,190.686C517.919,193.778 525.68,195.347 533.674,195.347C541.67,195.347 549.43,193.778 556.741,190.686C563.797,187.701 570.132,183.431 575.571,177.992C581.009,172.554 585.281,166.219 588.265,159.161C591.357,151.85 592.925,144.09 592.925,136.096C592.925,128.101 591.357,120.34 588.265,113.03Z" style="fill:rgb(76,76,76);fill-rule:nonzero;"/>
        <path d="M723.146,113.03C720.162,105.973 715.891,99.638 710.453,94.2C705.014,88.761 698.678,84.49 691.622,81.505C684.311,78.413 676.55,76.845 668.556,76.845L631.221,76.845C629.668,76.845 628.403,75.581 628.403,74.036L628.437,37.727L609.339,37.709L609.305,74.027C609.305,86.112 619.137,95.943 631.221,95.943L668.556,95.943C679.281,95.943 689.365,100.12 696.948,107.703C704.532,115.287 708.709,125.37 708.709,136.096C708.709,146.821 704.532,156.904 696.948,164.488C689.365,172.071 679.281,176.248 668.556,176.248C657.831,176.248 647.748,172.071 640.164,164.488C632.764,157.089 628.609,147.309 628.411,136.877L628.411,106.813C617.863,106.813 609.313,115.364 609.313,125.911L609.313,126.547L609.305,126.547L609.305,136.096C609.305,144.09 610.874,151.85 613.965,159.161C616.95,166.219 621.221,172.554 626.66,177.992C632.098,183.431 638.433,187.701 645.49,190.686C652.801,193.778 660.561,195.347 668.556,195.347C676.55,195.347 684.311,193.778 691.622,190.686C698.678,187.701 705.014,183.431 710.453,177.992C715.891,172.554 720.162,166.219 723.146,159.161C726.239,151.85 727.806,144.09 727.806,136.096C727.806,128.101 726.239,120.34 723.146,113.03Z" style="fill:rgb(76,76,76);fill-rule:nonzero;"/>
        <path d="M988.845,78.353L985.956,78.353L985.956,76.869L993.35,76.869L993.35,78.353L990.46,78.353L990.46,85.982L988.845,85.982L988.845,78.353Z" style="fill:rgb(76,76,76);fill-rule:nonzero;"/>
        <path d="M995.042,76.869L996.747,76.869L999.519,81.178L1002.29,76.869L1004,76.869L1004,85.982L1002.4,85.982L1002.4,79.447L999.519,83.743L999.467,83.743L996.617,79.473L996.617,85.982L995.042,85.982L995.042,76.869Z" style="fill:rgb(76,76,76);fill-rule:nonzero;"/>
        <path d="M238.625,164.261C237.245,162.137 235.705,160.086 233.995,158.129C231.017,154.603 228.676,150.949 227.032,147.26C225.507,143.847 224.734,140.208 224.734,136.445C224.734,132.683 225.507,129.044 227.035,125.624C228.676,121.942 231.017,118.288 233.995,114.762C235.705,112.806 237.245,110.754 238.625,108.63C246.886,115.14 252.175,125.23 252.175,136.445C252.175,147.661 246.886,157.751 238.625,164.261ZM217.96,218.85C210.028,226.782 199.145,230.166 188.701,228.904C189.218,226.454 189.575,223.943 189.748,221.38C190.136,216.773 191.066,212.525 192.515,208.747C193.854,205.245 195.887,202.116 198.555,199.447C201.225,196.778 204.355,194.745 207.863,193.403C211.635,191.957 215.882,191.027 220.489,190.64C223.052,190.467 225.563,190.109 228.013,189.593C229.275,200.036 225.891,210.919 217.96,218.85ZM135.554,253.066C124.339,253.066 114.249,247.778 107.74,239.517C109.863,238.138 111.914,236.596 113.87,234.887C117.397,231.908 121.05,229.567 124.741,227.923C128.153,226.398 131.792,225.626 135.554,225.626C139.318,225.626 142.956,226.398 146.376,227.927C150.058,229.567 153.712,231.908 157.238,234.887C159.194,236.597 161.246,238.137 163.37,239.516C156.86,247.777 146.77,253.066 135.554,253.066ZM53.148,218.851C45.217,210.919 41.833,200.036 43.095,189.593C45.546,190.109 48.056,190.467 50.619,190.639C55.226,191.027 59.473,191.957 63.253,193.406C66.754,194.745 69.883,196.778 72.552,199.447C75.221,202.116 77.254,205.245 78.597,208.754C80.042,212.525 80.972,216.773 81.361,221.38C81.533,223.943 81.89,226.453 82.407,228.904C71.963,230.166 61.079,226.782 53.148,218.851ZM18.933,136.445C18.933,125.23 24.222,115.14 32.483,108.63C33.863,110.754 35.403,112.806 37.113,114.762C40.091,118.288 42.432,121.942 44.077,125.631C45.601,129.044 46.374,132.683 46.374,136.445C46.374,140.208 45.601,143.847 44.073,147.267C42.432,150.949 40.091,154.603 37.113,158.129C35.403,160.085 33.863,162.137 32.483,164.261C24.222,157.751 18.933,147.661 18.933,136.445ZM53.148,54.04C60.004,47.185 69.063,43.722 78.139,43.722C79.565,43.722 80.989,43.813 82.407,43.985C81.89,46.436 81.533,48.948 81.361,51.512C80.972,56.118 80.042,60.366 78.593,64.144C77.254,67.646 75.221,70.775 72.552,73.444C69.883,76.113 66.755,78.146 63.244,79.488C59.473,80.934 55.227,81.865 50.621,82.252C48.057,82.425 45.546,82.782 43.095,83.299C41.833,72.855 45.217,61.972 53.148,54.04ZM135.554,19.825C146.77,19.825 156.86,25.114 163.37,33.375C161.246,34.755 159.194,36.296 157.237,38.006C153.712,40.983 150.057,43.325 146.368,44.969C142.956,46.493 139.318,47.265 135.554,47.265C131.792,47.265 128.153,46.493 124.733,44.965C121.05,43.325 117.397,40.983 113.872,38.006C111.915,36.296 109.863,34.755 107.739,33.375C114.249,25.114 124.339,19.825 135.554,19.825ZM209.591,155.04C211.976,160.394 215.3,165.604 219.469,170.527L219.575,170.65C219.86,170.975 220.13,171.308 220.401,171.641C219.988,171.683 219.575,171.725 219.158,171.753L218.998,171.765C212.577,172.297 206.55,173.63 201.092,175.723C195.089,178.018 189.732,181.496 185.168,186.059C180.606,190.622 177.128,195.979 174.834,201.975C172.738,207.44 171.406,213.468 170.874,219.888L170.861,220.05C170.834,220.467 170.791,220.879 170.749,221.292C170.417,221.021 170.084,220.751 169.76,220.466L169.636,220.36C164.713,216.19 159.502,212.867 154.156,210.485C148.277,207.859 142.019,206.527 135.554,206.527C129.09,206.527 122.831,207.859 116.96,210.482C111.607,212.867 106.396,216.19 101.472,220.36L101.349,220.466C101.025,220.751 100.692,221.021 100.359,221.292C100.317,220.879 100.275,220.467 100.248,220.05L100.235,219.888C99.702,213.468 98.37,207.44 96.277,201.982C93.981,195.979 90.502,190.622 85.94,186.059L85.939,186.058C81.377,181.496 76.019,178.018 70.025,175.725C64.56,173.63 58.533,172.297 52.111,171.765L51.95,171.753C51.533,171.725 51.12,171.683 50.707,171.641C50.978,171.308 51.248,170.975 51.533,170.65L51.639,170.527C55.808,165.604 59.132,160.393 61.514,155.047C64.14,149.168 65.471,142.909 65.471,136.445C65.471,129.982 64.14,123.724 61.517,117.85C59.132,112.497 55.808,107.286 51.639,102.363L51.533,102.24C51.248,101.915 50.978,101.583 50.707,101.25C51.12,101.209 51.533,101.166 51.95,101.138L52.111,101.126C58.533,100.595 64.56,99.262 70.017,97.169C76.019,94.873 81.377,91.395 85.94,86.832C90.503,82.269 93.981,76.912 96.275,70.915C98.37,65.451 99.702,59.424 100.235,53.003L100.248,52.842C100.275,52.424 100.317,52.011 100.359,51.598C100.692,51.869 101.024,52.14 101.349,52.425L101.472,52.531C106.396,56.701 111.607,60.025 116.953,62.406C122.831,65.032 129.089,66.364 135.554,66.364C142.019,66.364 148.277,65.032 154.15,62.41C159.502,60.024 164.713,56.701 169.636,52.531L169.76,52.425C170.084,52.14 170.417,51.87 170.749,51.6C170.791,52.013 170.834,52.425 170.861,52.842L170.874,53.003C171.406,59.424 172.738,65.45 174.831,70.909C177.128,76.912 180.606,82.269 185.168,86.832C189.732,91.395 195.089,94.873 201.084,97.166C206.55,99.262 212.578,100.595 218.998,101.126L219.158,101.138C219.575,101.166 219.988,101.209 220.401,101.25C220.13,101.583 219.86,101.915 219.575,102.24L219.469,102.363C215.3,107.287 211.976,112.497 209.594,117.844C206.968,123.724 205.637,129.982 205.637,136.445C205.637,142.909 206.968,149.167 209.591,155.04ZM217.96,54.04C225.891,61.972 229.275,72.855 228.013,83.299C225.563,82.782 223.051,82.425 220.487,82.252C215.882,81.865 211.635,80.934 207.856,79.485C204.354,78.146 201.225,76.113 198.556,73.444C195.887,70.775 193.854,67.646 192.512,64.138C191.066,60.366 190.136,56.118 189.748,51.512C189.575,48.949 189.218,46.438 188.701,43.987C199.146,42.725 210.029,46.109 217.96,54.04ZM271.109,136.445C271.109,117.391 261.159,100.453 246.083,90.742C249.929,73.156 244.988,54.06 231.464,40.536C217.941,27.013 198.845,22.071 181.259,25.919C171.548,10.841 154.609,0.891 135.554,0.891C116.499,0.891 99.56,10.841 89.85,25.919C72.263,22.072 53.168,27.013 39.644,40.536C26.12,54.06 21.179,73.156 25.026,90.742C9.949,100.453 0,117.391 0,136.445C0,155.5 9.948,172.439 25.026,182.149C21.179,199.736 26.12,218.831 39.644,232.355C50.205,242.916 64.161,248.252 78.146,248.251C82.072,248.251 86.001,247.827 89.856,246.982C99.568,262.055 116.504,272 135.554,272C154.609,272 171.547,262.051 181.259,246.974C198.845,250.821 217.941,245.879 231.464,232.355C244.988,218.831 249.929,199.736 246.083,182.149C261.159,172.438 271.109,155.5 271.109,136.445Z" style="fill:url(#_Linear1);"/>
        <path d="M220.401,101.25C227.253,101.944 233.509,104.598 238.625,108.63C242.237,103.072 244.713,97.003 246.083,90.742C240.65,87.243 234.555,84.678 228.013,83.299C227.239,89.712 224.712,95.956 220.401,101.25Z" style="fill:rgb(80,44,135);fill-rule:nonzero;"/>
        <path d="M220.401,101.25C227.253,101.944 233.509,104.598 238.625,108.63C242.237,103.072 244.713,97.003 246.083,90.742C240.65,87.243 234.555,84.678 228.013,83.299C227.239,89.712 224.712,95.956 220.401,101.25Z" style="fill:rgb(80,44,135);fill-rule:nonzero;"/>
        <path d="M100.359,221.292C95.064,225.602 88.82,228.13 82.407,228.904C83.787,235.45 86.354,241.548 89.856,246.982C96.115,245.613 102.183,243.128 107.74,239.517C103.707,234.4 101.053,228.144 100.359,221.292Z" style="fill:rgb(153,35,117);fill-rule:nonzero;"/>
        <path d="M100.359,221.292C95.064,225.602 88.82,228.13 82.407,228.904C83.787,235.45 86.354,241.548 89.856,246.982C96.115,245.613 102.183,243.128 107.74,239.517C103.707,234.4 101.053,228.144 100.359,221.292Z" style="fill:rgb(153,35,117);fill-rule:nonzero;"/>
        <path d="M170.749,221.292C170.055,228.143 167.401,234.399 163.37,239.516C168.928,243.128 174.998,245.603 181.259,246.974C184.757,241.541 187.322,235.446 188.701,228.904C182.288,228.13 176.044,225.602 170.749,221.292Z" style="fill:rgb(106,42,125);fill-rule:nonzero;"/>
        <path d="M170.749,221.292C170.055,228.143 167.401,234.399 163.37,239.516C168.928,243.128 174.998,245.603 181.259,246.974C184.757,241.541 187.322,235.446 188.701,228.904C182.288,228.13 176.044,225.602 170.749,221.292Z" style="fill:rgb(106,42,125);fill-rule:nonzero;"/>
        <path d="M220.401,171.641C224.712,176.935 227.239,183.18 228.013,189.593C234.555,188.214 240.65,185.648 246.083,182.149C244.713,175.889 242.237,169.819 238.625,164.261C233.509,168.293 227.253,170.946 220.401,171.641Z" style="fill:rgb(80,44,135);fill-rule:nonzero;"/>
        <path d="M220.401,171.641C224.712,176.935 227.239,183.18 228.013,189.593C234.555,188.214 240.65,185.648 246.083,182.149C244.713,175.889 242.237,169.819 238.625,164.261C233.509,168.293 227.253,170.946 220.401,171.641Z" style="fill:rgb(80,44,135);fill-rule:nonzero;"/>
        <path d="M170.749,51.6C176.045,47.289 182.288,44.762 188.701,43.987C187.322,37.445 184.757,31.351 181.259,25.919C174.998,27.288 168.928,29.764 163.37,33.375C167.401,38.492 170.055,44.747 170.749,51.6Z" style="fill:rgb(106,42,125);fill-rule:nonzero;"/>
        <path d="M170.749,51.6C176.045,47.289 182.288,44.762 188.701,43.987C187.322,37.445 184.757,31.351 181.259,25.919C174.998,27.288 168.928,29.764 163.37,33.375C167.401,38.492 170.055,44.747 170.749,51.6Z" style="fill:rgb(106,42,125);fill-rule:nonzero;"/>
        <path d="M100.359,51.598C101.053,44.746 103.707,38.491 107.739,33.375C102.181,29.764 96.111,27.288 89.85,25.919C86.351,31.35 83.786,37.444 82.407,43.985C88.82,44.759 95.065,47.288 100.359,51.598Z" style="fill:rgb(153,35,117);fill-rule:nonzero;"/>
        <path d="M100.359,51.598C101.053,44.746 103.707,38.491 107.739,33.375C102.181,29.764 96.111,27.288 89.85,25.919C86.351,31.35 83.786,37.444 82.407,43.985C88.82,44.759 95.065,47.288 100.359,51.598Z" style="fill:rgb(153,35,117);fill-rule:nonzero;"/>
        <path d="M50.707,101.25C46.397,95.956 43.869,89.712 43.095,83.299C36.553,84.678 30.459,87.243 25.026,90.742C26.396,97.003 28.871,103.072 32.483,108.63C37.599,104.599 43.855,101.944 50.707,101.25Z" style="fill:rgb(183,30,116);fill-rule:nonzero;"/>
        <path d="M50.707,101.25C46.397,95.956 43.869,89.712 43.095,83.299C36.553,84.678 30.459,87.243 25.026,90.742C26.396,97.003 28.871,103.072 32.483,108.63C37.599,104.599 43.855,101.944 50.707,101.25Z" style="fill:rgb(183,30,116);fill-rule:nonzero;"/>
        <path d="M50.707,171.641C43.855,170.946 37.599,168.293 32.483,164.261C28.871,169.819 26.396,175.889 25.026,182.149C30.459,185.649 36.553,188.214 43.095,189.593C43.869,183.18 46.397,176.935 50.707,171.641Z" style="fill:rgb(183,30,116);fill-rule:nonzero;"/>
        <path d="M50.707,171.641C43.855,170.946 37.599,168.293 32.483,164.261C28.871,169.819 26.396,175.889 25.026,182.149C30.459,185.649 36.553,188.214 43.095,189.593C43.869,183.18 46.397,176.935 50.707,171.641Z" style="fill:rgb(183,30,116);fill-rule:nonzero;"/>
    </g>
    <defs>
        <linearGradient id="_Linear1" x1="0" y1="0" x2="1" y2="0" gradientUnits="userSpaceOnUse" gradientTransform="matrix(271.109,0,0,271.109,0,136.445)"><stop offset="0" style="stop-color:rgb(237,22,127);stop-opacity:1"/><stop offset="0.2" style="stop-color:rgb(228,6,139);stop-opacity:1"/><stop offset="1" style="stop-color:rgb(117,60,151);stop-opacity:1"/></linearGradient>
    </defs>
</svg>
